<svg xmlns="http://www.w3.org/2000/svg" width="90" height="163" fill="none" viewBox="0 0 90 163"><circle cx="65.18" cy="3.193" r="3.18" fill="#7E4FFF" fill-opacity=".2"/><circle cx="80.727" cy="3.193" r="3.18" fill="#7E4FFF" fill-opacity=".2"/><circle cx="65.18" cy="17.327" r="3.18" fill="#7E4FFF" fill-opacity=".2"/><circle cx="80.727" cy="17.327" r="3.18" fill="#7E4FFF" fill-opacity=".2"/><circle cx="65.18" cy="31.46" r="3.18" fill="#7E4FFF" fill-opacity=".2"/><circle cx="80.727" cy="31.46" r="3.18" fill="#7E4FFF" fill-opacity=".2"/><circle cx="65.18" cy="45.593" r="3.18" fill="#7E4FFF" fill-opacity=".2"/><circle cx="80.727" cy="45.593" r="3.18" fill="#7E4FFF" fill-opacity=".2"/><circle cx="65.18" cy="59.727" r="3.18" fill="#7E4FFF" fill-opacity=".2"/><circle cx="80.727" cy="59.727" r="3.18" fill="#7E4FFF" fill-opacity=".2"/><circle cx="65.18" cy="73.86" r="3.18" fill="#7E4FFF" fill-opacity=".2"/><circle cx="80.727" cy="73.86" r="3.18" fill="#7E4FFF" fill-opacity=".2"/><circle cx="65.18" cy="88.207" r="3.18" fill="#7E4FFF" fill-opacity=".2"/><circle cx="80.727" cy="88.207" r="3.18" fill="#7E4FFF" fill-opacity=".2"/><circle cx="65.18" cy="102.34" r="3.18" fill="#7E4FFF" fill-opacity=".2"/><circle cx="80.727" cy="102.34" r="3.18" fill="#7E4FFF" fill-opacity=".2"/><circle cx="65.18" cy="116.473" r="3.18" fill="#7E4FFF" fill-opacity=".2"/><circle cx="80.727" cy="116.473" r="3.18" fill="#7E4FFF" fill-opacity=".2"/><circle cx="65.18" cy="130.607" r="3.18" fill="#7E4FFF" fill-opacity=".2"/><circle cx="80.727" cy="130.607" r="3.18" fill="#7E4FFF" fill-opacity=".2"/><circle cx="65.18" cy="144.74" r="3.18" fill="#7E4FFF" fill-opacity=".2"/><circle cx="80.727" cy="144.74" r="3.18" fill="#7E4FFF" fill-opacity=".2"/><circle cx="65.18" cy="158.873" r="3.18" fill="#7E4FFF" fill-opacity=".2"/><circle cx="80.727" cy="158.873" r="3.18" fill="#7E4FFF" fill-opacity=".2"/><circle cx="3.18" cy="3.18" r="3.18" fill="#7E4FFF" fill-opacity=".2"/><circle cx="18.727" cy="3.18" r="3.18" fill="#7E4FFF" fill-opacity=".2"/><circle cx="34.273" cy="3.18" r="3.18" fill="#7E4FFF" fill-opacity=".2"/><circle cx="49.82" cy="3.18" r="3.18" fill="#7E4FFF" fill-opacity=".2"/><circle cx="3.18" cy="17.313" r="3.18" fill="#7E4FFF" fill-opacity=".2"/><circle cx="18.727" cy="17.313" r="3.18" fill="#7E4FFF" fill-opacity=".2"/><circle cx="34.273" cy="17.313" r="3.18" fill="#7E4FFF" fill-opacity=".2"/><circle cx="49.82" cy="17.313" r="3.18" fill="#7E4FFF" fill-opacity=".2"/><circle cx="3.18" cy="31.447" r="3.18" fill="#7E4FFF" fill-opacity=".2"/><circle cx="18.727" cy="31.447" r="3.18" fill="#7E4FFF" fill-opacity=".2"/><circle cx="34.273" cy="31.447" r="3.18" fill="#7E4FFF" fill-opacity=".2"/><circle cx="49.82" cy="31.447" r="3.18" fill="#7E4FFF" fill-opacity=".2"/><circle cx="3.18" cy="45.58" r="3.18" fill="#7E4FFF" fill-opacity=".2"/><circle cx="18.727" cy="45.58" r="3.18" fill="#7E4FFF" fill-opacity=".2"/><circle cx="34.273" cy="45.58" r="3.18" fill="#7E4FFF" fill-opacity=".2"/><circle cx="49.82" cy="45.58" r="3.18" fill="#7E4FFF" fill-opacity=".2"/><circle cx="3.18" cy="59.713" r="3.18" fill="#7E4FFF" fill-opacity=".2"/><circle cx="18.727" cy="59.713" r="3.18" fill="#7E4FFF" fill-opacity=".2"/><circle cx="34.273" cy="59.713" r="3.18" fill="#7E4FFF" fill-opacity=".2"/><circle cx="49.82" cy="59.713" r="3.18" fill="#7E4FFF" fill-opacity=".2"/><circle cx="3.18" cy="73.847" r="3.18" fill="#7E4FFF" fill-opacity=".2"/><circle cx="18.727" cy="73.847" r="3.18" fill="#7E4FFF" fill-opacity=".2"/><circle cx="34.273" cy="73.847" r="3.18" fill="#7E4FFF" fill-opacity=".2"/><circle cx="49.82" cy="73.847" r="3.18" fill="#7E4FFF" fill-opacity=".2"/><circle cx="3.18" cy="88.193" r="3.18" fill="#7E4FFF" fill-opacity=".2"/><circle cx="18.727" cy="88.193" r="3.18" fill="#7E4FFF" fill-opacity=".2"/><circle cx="34.273" cy="88.193" r="3.18" fill="#7E4FFF" fill-opacity=".2"/><circle cx="49.82" cy="88.193" r="3.18" fill="#7E4FFF" fill-opacity=".2"/><circle cx="3.18" cy="102.327" r="3.18" fill="#7E4FFF" fill-opacity=".2"/><circle cx="18.727" cy="102.327" r="3.18" fill="#7E4FFF" fill-opacity=".2"/><circle cx="34.273" cy="102.327" r="3.18" fill="#7E4FFF" fill-opacity=".2"/><circle cx="49.82" cy="102.327" r="3.18" fill="#7E4FFF" fill-opacity=".2"/><circle cx="3.18" cy="116.46" r="3.18" fill="#7E4FFF" fill-opacity=".2"/><circle cx="18.727" cy="116.46" r="3.18" fill="#7E4FFF" fill-opacity=".2"/><circle cx="34.273" cy="116.46" r="3.18" fill="#7E4FFF" fill-opacity=".2"/><circle cx="49.82" cy="116.46" r="3.18" fill="#7E4FFF" fill-opacity=".2"/><circle cx="3.18" cy="130.593" r="3.18" fill="#7E4FFF" fill-opacity=".2"/><circle cx="18.727" cy="130.593" r="3.18" fill="#7E4FFF" fill-opacity=".2"/><circle cx="34.273" cy="130.593" r="3.18" fill="#7E4FFF" fill-opacity=".2"/><circle cx="49.82" cy="130.593" r="3.18" fill="#7E4FFF" fill-opacity=".2"/><circle cx="3.18" cy="144.727" r="3.18" fill="#7E4FFF" fill-opacity=".2"/><circle cx="18.727" cy="144.727" r="3.18" fill="#7E4FFF" fill-opacity=".2"/><circle cx="34.273" cy="144.727" r="3.18" fill="#7E4FFF" fill-opacity=".2"/><circle cx="49.82" cy="144.727" r="3.18" fill="#7E4FFF" fill-opacity=".2"/><circle cx="3.18" cy="158.86" r="3.18" fill="#7E4FFF" fill-opacity=".2"/><circle cx="18.727" cy="158.86" r="3.18" fill="#7E4FFF" fill-opacity=".2"/><circle cx="34.273" cy="158.86" r="3.18" fill="#7E4FFF" fill-opacity=".2"/><circle cx="49.82" cy="158.86" r="3.18" fill="#7E4FFF" fill-opacity=".2"/></svg>